<svg xmlns="http://www.w3.org/2000/svg" viewBox="0 0 30 30" width="30px" height="30px"><path fill="#e1ebf2" d="M26.625,21.46c-0.636,1.376-0.941,1.991-1.757,3.206c-1.141,1.698-2.753,3.817-4.745,3.832 c-1.771,0.014-2.228-1.13-4.632-1.112c-2.403,0.012-2.904,1.133-4.678,1.113c-1.991-0.016-3.516-1.926-4.658-3.62 c-1.828-2.722-2.598-5.711-2.657-8.326c-0.044-1.953,0.256-3.698,1.1-4.965C5.995,9.486,8.205,8.5,10.279,8.5 c2.113,0,3.441,1,5.187,1c1.697,0,2.729-1,5.172-1c1.848,0,3.803,0.734,5.198,2.431C21.269,13.377,22.01,19.753,26.625,21.46z"/><path fill="#788b9c" d="M10.86,29l-0.051,0c-2.195-0.019-3.793-1.952-5.066-3.84C4.041,22.627,3.067,19.576,3,16.565 c-0.049-2.231,0.349-3.999,1.183-5.253C5.56,9.238,7.838,8,10.279,8c1.182,0,2.145,0.296,2.994,0.558 C14.012,8.785,14.709,9,15.466,9c0.691,0,1.271-0.189,1.941-0.407C18.259,8.315,19.226,8,20.638,8c2.183,0,4.218,0.952,5.585,2.613 l0.387,0.471l-0.537,0.288c-1.895,1.015-2.94,2.862-2.797,4.941c0.147,2.137,1.497,3.929,3.522,4.679l0.507,0.188l-0.227,0.491 c-0.647,1.401-0.97,2.046-1.795,3.275c-1.34,1.995-3,4.037-5.156,4.053c0,0,0,0-0.001,0c-0.941,0-1.551-0.273-2.141-0.537 c-0.631-0.283-1.285-0.575-2.435-0.575c-1.236,0.006-1.911,0.299-2.564,0.583C12.387,28.729,11.766,28.999,10.86,29z M10.279,9 c-2.104,0-4.072,1.071-5.263,2.865C4.297,12.946,3.955,14.52,4,16.542c0.063,2.822,0.977,5.684,2.572,8.058 c1.127,1.672,2.514,3.384,4.247,3.398l0.042,0.5V28c0.698,0,1.176-0.208,1.729-0.448c0.711-0.309,1.517-0.658,2.901-0.665 c0,0,0.001,0,0.001,0c1.424,0,2.21,0.352,2.903,0.662c0.539,0.241,1.005,0.45,1.698,0.45c1.728-0.013,3.236-1.937,4.361-3.611 c0.693-1.031,1.003-1.608,1.499-2.666c-2.121-0.984-3.512-2.986-3.674-5.34c-0.157-2.275,0.873-4.315,2.778-5.568 C23.9,9.654,22.32,9,20.638,9c-1.253,0-2.101,0.276-2.921,0.543C16.997,9.778,16.316,10,15.466,10c-0.907,0-1.71-0.247-2.487-0.486 C12.159,9.261,11.311,9,10.279,9z"/><g><path fill="#e1ebf2" d="M19.097,5.054c0.952-1.183,1.666-2.843,1.403-4.544c-1.552,0.104-3.36,1.054-4.421,2.296 c-0.962,1.133-1.759,2.814-1.448,4.442C16.325,7.3,18.079,6.323,19.097,5.054z"/><path fill="#788b9c" d="M14.76,7.75C14.76,7.75,14.76,7.75,14.76,7.75l-0.545-0.015L14.14,7.342 c-0.295-1.546,0.288-3.362,1.558-4.859c1.166-1.366,3.083-2.359,4.769-2.472l0.458-0.03l0.07,0.453 c0.252,1.631-0.298,3.43-1.508,4.934C18.326,6.814,16.47,7.75,14.76,7.75z M20.052,1.068c-1.297,0.232-2.717,1.036-3.593,2.063 c-0.372,0.438-1.501,1.92-1.391,3.606c1.316-0.107,2.745-0.882,3.638-1.996C19.155,4.184,20.12,2.777,20.052,1.068z"/></g></svg>